<?xml version="1.0" encoding="utf-8"?>
<svg xmlns="http://www.w3.org/2000/svg" xmlns:xlink="http://www.w3.org/1999/xlink" version="1.1" viewBox="0 100 450 170" xml:space="preserve">
	<g transform="matrix(1, 0, 0, 1, 300, -200)" style="fill:#00459E;">
		<path d="M99.445,375.059c0,0,40.477-16.126,68.275,21.728C167.72,396.786,141.29,365.388,99.445,375.059z"/>
		<path d="M161.898,374.026c0,0-37.059-31.671-79.915,1.236C81.983,375.262,120.088,347.462,161.898,374.026z    "/>
		<path d="M108.378,374.958c0,0-17.252,1.425-25.581,14.367c-7.12,11.063-0.163,22.456-0.163,22.456    s-4.22-9.338-0.966-17.259c3.254-7.922,9.618-11.167,9.618-11.167s-2.261,2.265-3.481,4.897c0,0,18.48-17.227,49.292-7.102    c0,0-14.971-7.876-35.287-2.281C101.811,378.868,102.059,377.454,108.378,374.958z"/>
		<path d="M127.561,349.685c0,0-49.422-1.9-67.877,37.368C59.684,387.053,69.887,345.755,127.561,349.685z"/>
		<path d="M61.248,359.143c0,0-13.115,7.802-17.229,30.168c-4.946,26.891,16.251,46.342,16.251,46.342    S30.676,398.97,61.248,359.143z"/>
		<path d="M64.407,366.731c0,0-24.355,30.339,2.926,66.042C67.333,432.772,34.303,404.403,64.407,366.731z"/>
		<path d="M56.296,420.939c0,0,6.414,21.111,38.123,22.555C94.419,443.494,65.165,447.252,56.296,420.939z"/>
		<path d="M107.941,468.302c50.675-19.268,27.262-60.916,27.262-60.916    c2.242,4.365,2.306,10.329,2.306,10.329s-0.019-5.092-8.947-15.602c-8.928-10.51-22.316-9.565-22.316-9.565    c13.261-3.17,22.18,5.872,22.18,5.872c-16.164-16.72-33.408-5.149-33.408-5.149c19.356-18.055,47.219,3.451,47.219,3.451    c-13.923-14.892-34.276-12.21-34.276-12.21c3.036-1.397,6.859-1.975,6.859-1.975c-20.139-2.743-29.113,12.668-29.113,12.668    c0.3-1.751,1.286-4.254,1.286-4.254c-9.622,12.292-2.569,22.486,1.217,25.653c9.824,8.218,22.373-1.989,22.373-1.989    c-2.679,9.372-15.773,9.899-15.773,9.899c2.081,1.518,6.636,1.268,6.636,1.268s-9.302,2.307-18.775-4.58    c-9.474-6.887-11.672-16.549-11.672-16.549c0.596,7.008,5.005,12.595,5.005,12.595c-8.145-8.269-12.462-21.028-2.167-37.279    c10.294-16.251,36.563-23.892,36.563-23.892s-28.392,3.066-43.307,28.441c0,0-0.427-3.146,1.986-7.435    c0,0-15.515,13.144-4.83,40.289c0,0-3.809-13.475-1.028-20.482c0,0-1.23,17.928,14.632,28.057    c15.862,10.13,30.342,3.111,34.43-1.733c0,0-1.816,4.61-3.392,6.07c0,0,10.264-6.011,8.911-18.526    c-1.352-12.515-12.555-13.086-15.606-9.263c-3.052,3.823-0.298,7.058,1.864,7.749c2.162,0.691,4.468-0.343,4.728-1.674    c0.26-1.33-0.701-2.33-0.701-2.33c4.662,3.591-1.041,9.851-7.75,5.2c-6.34-4.395-2.805-11.891,0.253-14.092    c4.282-3.082,15.148-4.688,25.103,4.292c10.394,9.376,11.2,25.748,11.2,25.748c0.872-2.071,1.213-4.505,1.213-4.505    C142.459,454.954,107.941,468.302,107.941,468.302z M89.001,411.627c5.587,9.133,14.927,4.574,14.927,4.574    s-9.426,5.975-15.941-2.471c-5.79-7.505-1.372-19.562,6.143-25.197C94.13,388.533,82.288,400.653,89.001,411.627z"/>
		<path d="M46.398,425.283c0,0,21.349,31.852,59.006,21.336l-3.934,2.758c0,0,21.381-2.99,26.156-27.304    c0,0,0.008,29.986-32.341,32.417c0,0,3.531-1.904,4.42-3.328C99.706,451.162,62.491,454.302,46.398,425.283z"/>
		<path d="M51.323,440.311c0,0,32.386,28.759,66.621,8.308C117.944,448.62,87.186,473.086,51.323,440.311z"/>
		<path d="M133.214,416.427c0,0,8.006,29.91-25.566,44.411C107.649,460.838,136.032,447.468,133.214,416.427z    "/>
		<path d="M131.181,414.244c0,0-2.475-11.116-13.008-16.794c-10.533-5.678-21.898,1.416-18.091,8.475    c0,0-2.033-5.182,5.312-8.507C113.26,393.858,127.377,402.913,131.181,414.244z"/>
		<path d="M113.833,399.507c0,0,6.212,2.227,10.106,10.718c3.894,8.492,1.789,23.842-19.869,35.158    c0,0,11.569-7.334,15-17.148c0,0-3.851,5.774-9.04,8.585C110.03,436.82,131.11,417.791,113.833,399.507z"/>
		<path style="stroke:#00459E;stroke-width:0.25;stroke-miterlimit:10;" d="M63.899,422.595    c0,0,16.3,18.827,36.421,11.822c0,0-9.611,1.006-19.555-3.847c0,0,13.416,4.798,26.889-2.038c0,0-0.211,6.377-9.004,8.737    C89.857,439.629,73.833,435.455,63.899,422.595z"/>
	</g>
	<g transform="matrix(2.5, 0, 0, 2.5, 20, 130)" fill="#333333"><g fill="#333333" transform="translate(0, 0)"><path d="M17.19 14.01Q17.19 14.16 16.72 15.38Q16.26 16.60 15.48 18.51Q14.70 20.41 13.67 22.85Q12.65 25.29 11.57 27.83Q10.50 30.37 9.42 32.89Q8.35 35.40 7.45 37.45Q6.54 39.50 5.93 40.92Q5.32 42.33 5.13 42.77Q10.16 42.29 12.28 42.16Q14.40 42.04 14.55 42.19Q14.75 42.38 14.55 43.09Q14.36 43.80 13.96 44.65Q13.57 45.51 13.13 46.26Q12.70 47.02 12.40 47.36Q12.35 47.46 11.65 47.53Q10.94 47.61 9.94 47.66Q8.94 47.71 7.74 47.75Q6.54 47.80 5.47 47.83Q4.39 47.85 3.59 47.85Q2.78 47.85 2.54 47.80Q2.20 47.75 1.88 47.39Q1.56 47.02 1.29 46.53Q1.03 46.04 0.83 45.48Q0.63 44.92 0.59 44.48Q0.54 44.04 1.05 42.26Q1.56 40.48 2.42 37.99Q3.27 35.50 4.30 32.62Q5.32 29.74 6.32 27.08Q7.32 24.41 8.11 22.29Q8.89 20.17 9.23 19.19Q6.79 19.34 5.20 19.46Q3.61 19.58 2.69 19.63Q1.76 19.68 1.37 19.68Q0.98 19.68 0.88 19.53Q0.63 19.24 0.42 18.33Q0.20 17.43 0.10 16.38Q0 15.33 0.05 14.43Q0.10 13.53 0.34 13.28Q0.49 13.13 1.78 13.01Q3.08 12.89 4.93 12.84Q6.79 12.79 8.91 12.82Q11.04 12.84 12.87 12.96Q14.70 13.09 15.92 13.35Q17.14 13.62 17.19 14.01ZM30.08 22.56Q30.37 22.90 30.62 23.27Q30.86 23.63 31.05 24.24Q31.25 24.85 31.37 25.83Q31.49 26.81 31.49 28.37Q31.49 30.86 31.37 33.37Q31.25 35.89 31.15 37.79Q31.10 39.50 31.05 40.97Q31.01 42.43 30.96 43.53Q30.91 44.63 30.83 45.26Q30.76 45.90 30.71 45.95Q30.52 46.09 30.10 45.83Q29.69 45.56 29.22 45.12Q28.76 44.68 28.37 44.19Q27.98 43.70 27.88 43.41Q27.88 43.16 27.73 41.99Q26.56 42.68 25.15 42.94Q23.73 43.21 22.34 43.14Q20.95 43.07 19.78 42.63Q18.60 42.19 18.02 41.46Q17.77 41.16 17.60 40.58Q17.43 39.99 17.31 39.23Q17.19 38.48 17.09 37.62Q16.99 36.77 16.94 36.04Q16.85 34.13 17.43 32.74Q18.02 31.35 19.58 30.66Q20.26 30.37 21.41 30.35Q22.56 30.32 23.71 30.44Q24.85 30.57 25.78 30.74Q26.71 30.91 26.95 31.01Q26.76 28.52 26.66 26.68Q26.56 24.85 26.27 24.32Q26.03 23.97 25.68 23.63Q25.39 23.39 24.90 23.10Q24.41 22.80 23.73 22.66Q23.19 22.56 22.75 23.10Q22.36 23.58 22.05 24.83Q21.73 26.07 21.68 28.61Q19.97 28.66 19.07 28.59Q18.16 28.52 17.72 28.42Q17.19 28.32 17.09 28.17Q16.99 27.98 17.19 26.73Q17.38 25.49 17.75 24.02Q18.12 22.56 18.63 21.24Q19.14 19.92 19.73 19.58Q20.90 18.90 22.53 19.09Q24.17 19.29 25.73 19.92Q27.29 20.56 28.52 21.34Q29.74 22.12 30.08 22.56M27.05 36.82Q27.05 36.57 27.10 36.16Q27.15 35.74 27.15 35.30Q27.15 34.86 27.12 34.47Q27.10 34.08 27.00 33.89Q26.86 33.59 26.15 33.40Q25.44 33.20 24.56 33.13Q23.68 33.06 22.90 33.08Q22.12 33.11 21.83 33.30Q21.44 33.54 21.26 33.98Q21.09 34.42 21.04 35.35Q21.04 35.79 21.09 36.28Q21.14 36.77 21.22 37.23Q21.29 37.70 21.41 38.04Q21.53 38.38 21.68 38.48Q22.02 38.72 22.88 38.89Q23.73 39.06 24.61 38.99Q25.49 38.92 26.22 38.43Q26.95 37.94 27.05 36.82ZM37.65 42.14Q36.96 39.65 36.13 36.28Q35.45 33.40 34.50 29.27Q33.54 25.15 32.47 19.82Q32.47 19.48 32.89 18.97Q33.30 18.46 33.89 17.99Q34.47 17.53 35.11 17.21Q35.74 16.89 36.23 16.89Q36.43 17.19 36.91 19.48Q37.11 20.46 37.38 21.95Q37.65 23.44 37.99 25.63Q38.33 27.83 38.75 30.79Q39.16 33.74 39.70 37.60Q40.09 34.96 40.45 32.62Q40.82 30.27 41.11 28.47Q41.46 26.37 41.75 24.56Q41.89 23.44 42.09 22.19Q42.29 20.95 42.50 19.92Q42.72 18.90 42.99 18.19Q43.26 17.48 43.55 17.48Q43.85 17.48 44.43 17.60Q45.02 17.72 45.63 17.92Q46.24 18.12 46.73 18.38Q47.22 18.65 47.22 18.95Q47.22 19.09 46.92 20.39Q46.63 21.68 46.14 23.68Q45.65 25.68 45.02 28.20Q44.38 30.71 43.73 33.30Q43.07 35.89 42.38 38.38Q41.70 40.87 41.14 42.80Q40.58 44.73 40.19 45.92Q39.79 47.12 39.65 47.12Q39.50 47.12 38.84 45.78Q38.18 44.43 37.65 42.14ZM52.83 27.25Q52.93 27.49 52.95 28.78Q52.98 30.08 52.95 31.91Q52.93 33.74 52.83 35.82Q52.73 37.89 52.61 39.72Q52.49 41.55 52.34 42.85Q52.20 44.14 52.05 44.38Q51.61 45.07 50.73 45.24Q49.85 45.41 49.46 45.31Q49.27 45.31 49.05 44.19Q48.83 43.07 48.63 41.36Q48.44 39.65 48.29 37.65Q48.14 35.64 48.05 33.81Q47.95 31.98 47.95 30.62Q47.95 29.25 48.05 28.86Q48.19 28.22 48.90 27.73Q49.61 27.25 50.42 27.00Q51.22 26.76 51.93 26.78Q52.64 26.81 52.83 27.25M53.08 19.34Q53.27 19.73 53.25 20.41Q53.22 21.09 53.08 21.83Q52.93 22.56 52.69 23.24Q52.44 23.93 52.20 24.32Q51.71 25 50.76 25.17Q49.80 25.34 49.37 25.24Q49.02 25.20 48.68 24.78Q48.34 24.37 48.10 23.75Q47.85 23.14 47.75 22.41Q47.66 21.68 47.80 21.04Q47.95 20.41 48.73 19.90Q49.51 19.38 50.39 19.12Q51.27 18.85 52.05 18.87Q52.83 18.90 53.08 19.34ZM67.24 21.63Q67.63 21.88 67.99 22.58Q68.36 23.29 68.68 24.19Q68.99 25.10 69.21 26.12Q69.43 27.15 69.60 28.03Q69.78 28.91 69.82 29.52Q69.87 30.13 69.82 30.27Q69.73 30.47 69.24 30.66Q68.80 30.86 67.92 31.10Q67.04 31.35 65.48 31.64Q65.38 28.96 65.09 27.56Q64.79 26.17 64.45 25.59Q64.06 24.90 63.62 24.90Q63.18 25.10 62.84 25.37Q62.50 25.63 62.26 25.93Q61.96 26.27 61.72 26.66Q61.62 26.81 61.52 27.34Q61.43 27.88 61.33 28.96Q61.33 29.30 61.30 30.37Q61.28 31.45 61.25 32.86Q61.23 34.28 61.21 35.84Q61.18 37.40 61.16 38.75Q61.13 40.09 61.11 41.02Q61.08 41.94 61.04 42.09Q60.94 42.33 60.55 42.77Q60.16 43.21 59.67 43.58Q59.18 43.95 58.74 44.17Q58.30 44.38 58.15 44.14Q58.01 43.99 57.86 42.87Q57.71 41.75 57.54 40.11Q57.37 38.48 57.18 36.52Q56.98 34.57 56.84 32.76Q56.69 30.96 56.59 29.52Q56.49 28.08 56.45 27.44Q56.40 26.51 56.35 25.39Q56.30 24.27 56.27 23.27Q56.25 22.27 56.27 21.51Q56.30 20.75 56.45 20.61Q56.54 20.46 57.10 20.53Q57.67 20.61 58.33 20.83Q58.98 21.04 59.57 21.39Q60.16 21.73 60.35 22.02Q60.50 22.27 60.64 22.75Q61.57 22.27 62.43 21.85Q63.28 21.44 64.09 21.24Q64.89 21.04 65.67 21.12Q66.46 21.19 67.24 21.63ZM82.37 22.12Q82.47 22.27 82.67 23.49Q82.86 24.71 83.08 26.51Q83.30 28.32 83.52 30.42Q83.74 32.52 83.96 34.42Q84.18 36.33 84.33 37.84Q84.47 39.36 84.57 39.89Q84.72 40.77 84.91 41.82Q85.11 42.87 85.25 43.82Q85.40 44.78 85.47 45.46Q85.55 46.14 85.40 46.29Q85.30 46.44 84.62 46.36Q83.94 46.29 83.13 46.07Q82.32 45.85 81.62 45.53Q80.91 45.21 80.71 44.92Q80.52 44.68 80.35 44.19Q80.18 43.70 79.93 42.48Q79.39 43.21 78.78 44.02Q78.17 44.82 77.59 45.48Q77.00 46.14 76.51 46.53Q76.03 46.92 75.78 46.92Q75.39 46.92 74.61 46.12Q73.83 45.31 73.05 44.29Q72.27 43.26 71.63 42.33Q71.00 41.41 70.95 41.11Q70.85 40.82 70.87 39.50Q70.90 38.18 70.97 36.55Q71.04 34.91 71.14 33.28Q71.24 31.64 71.34 30.66Q71.44 29.69 71.56 28.49Q71.68 27.29 71.83 26.25Q71.97 25.20 72.09 24.41Q72.22 23.63 72.31 23.49Q72.41 23.34 72.88 23.32Q73.34 23.29 73.85 23.36Q74.37 23.44 74.80 23.61Q75.24 23.78 75.39 24.02Q75.49 24.22 75.51 25.27Q75.54 26.32 75.54 27.81Q75.54 29.30 75.54 31.03Q75.54 32.76 75.51 34.25Q75.49 35.74 75.46 36.79Q75.44 37.84 75.44 38.04Q75.44 38.43 75.90 39.55Q76.37 40.67 76.86 41.70L79.39 38.67Q79.35 37.79 79.32 36.43Q79.30 35.06 79.25 33.54Q79.20 32.03 79.15 30.47Q79.10 28.91 79.10 27.64Q79.10 26.37 79.10 25.54Q79.10 24.71 79.15 24.56Q79.30 24.27 79.74 23.78Q80.18 23.29 80.71 22.85Q81.25 22.41 81.71 22.17Q82.18 21.92 82.37 22.12ZM98.73 26.03Q99.22 26.32 99.68 27.10Q100.15 27.88 100.54 28.88Q100.93 29.88 101.17 31.03Q101.42 32.18 101.42 33.20Q101.42 33.89 101.22 35.23Q101.03 36.57 100.73 38.16Q100.44 39.75 100.10 41.41Q99.76 43.07 99.46 44.43Q99.17 45.80 98.93 46.73Q98.68 47.66 98.63 47.75Q98.54 47.90 98.07 47.95Q97.61 48.00 97.09 47.90Q96.58 47.80 96.14 47.61Q95.70 47.41 95.61 47.12Q95.56 46.92 95.58 45.87Q95.61 44.82 95.68 43.36Q95.75 41.89 95.87 40.19Q96.00 38.48 96.09 36.99Q96.19 35.50 96.26 34.42Q96.34 33.35 96.34 33.15Q96.39 32.37 96.22 31.62Q96.04 30.86 95.78 30.32Q95.51 29.79 95.19 29.49Q94.87 29.20 94.58 29.30Q94.14 29.39 93.73 29.54Q93.31 29.69 93.02 29.79Q92.63 29.93 92.33 30.08Q92.29 33.69 92.19 37.16Q92.09 40.63 91.94 43.38Q91.80 46.14 91.63 47.83Q91.46 49.51 91.26 49.56Q90.87 49.61 90.41 49.22Q89.94 48.83 89.50 48.27Q89.06 47.71 88.75 47.07Q88.43 46.44 88.33 46.00Q87.94 41.21 87.70 37.43Q87.45 33.64 87.30 30.71Q87.16 27.78 87.08 25.63Q87.01 23.49 87.01 21.97Q86.96 18.41 87.11 17.04Q87.30 16.02 87.99 15.06Q88.67 14.11 89.48 13.38Q90.28 12.65 90.99 12.28Q91.70 11.91 91.94 12.11Q92.09 12.26 92.21 13.45Q92.33 14.65 92.38 16.63Q92.43 18.60 92.43 21.17Q92.43 23.73 92.38 26.56Q94.34 25.78 96.02 25.59Q97.71 25.39 98.73 26.03ZM116.80 22.56Q117.09 22.90 117.33 23.27Q117.58 23.63 117.77 24.24Q117.97 24.85 118.09 25.83Q118.21 26.81 118.21 28.37Q118.21 30.86 118.09 33.37Q117.97 35.89 117.87 37.79Q117.82 39.50 117.77 40.97Q117.72 42.43 117.68 43.53Q117.63 44.63 117.55 45.26Q117.48 45.90 117.43 45.95Q117.24 46.09 116.82 45.83Q116.41 45.56 115.94 45.12Q115.48 44.68 115.09 44.19Q114.70 43.70 114.60 43.41Q114.60 43.16 114.45 41.99Q113.28 42.68 111.87 42.94Q110.45 43.21 109.06 43.14Q107.67 43.07 106.49 42.63Q105.32 42.19 104.74 41.46Q104.49 41.16 104.32 40.58Q104.15 39.99 104.03 39.23Q103.91 38.48 103.81 37.62Q103.71 36.77 103.66 36.04Q103.56 34.13 104.15 32.74Q104.74 31.35 106.30 30.66Q106.98 30.37 108.13 30.35Q109.28 30.32 110.42 30.44Q111.57 30.57 112.50 30.74Q113.43 30.91 113.67 31.01Q113.48 28.52 113.38 26.68Q113.28 24.85 112.99 24.32Q112.74 23.97 112.40 23.63Q112.11 23.39 111.62 23.10Q111.13 22.80 110.45 22.66Q109.91 22.56 109.47 23.10Q109.08 23.58 108.76 24.83Q108.45 26.07 108.40 28.61Q106.69 28.66 105.79 28.59Q104.88 28.52 104.44 28.42Q103.91 28.32 103.81 28.17Q103.71 27.98 103.91 26.73Q104.10 25.49 104.47 24.02Q104.83 22.56 105.35 21.24Q105.86 19.92 106.45 19.58Q107.62 18.90 109.25 19.09Q110.89 19.29 112.45 19.92Q114.01 20.56 115.23 21.34Q116.46 22.12 116.80 22.56M113.77 36.82Q113.77 36.57 113.82 36.16Q113.87 35.74 113.87 35.30Q113.87 34.86 113.84 34.47Q113.82 34.08 113.72 33.89Q113.57 33.59 112.87 33.40Q112.16 33.20 111.28 33.13Q110.40 33.06 109.62 33.08Q108.84 33.11 108.54 33.30Q108.15 33.54 107.98 33.98Q107.81 34.42 107.76 35.35Q107.76 35.79 107.81 36.28Q107.86 36.77 107.93 37.23Q108.01 37.70 108.13 38.04Q108.25 38.38 108.40 38.48Q108.74 38.72 109.59 38.89Q110.45 39.06 111.33 38.99Q112.21 38.92 112.94 38.43Q113.67 37.94 113.77 36.82Z"/></g><g fill="#085faf" transform="translate(0, 62.548828125)"><path d=""/></g></g>
</svg>